font.ufo
<glyph name="quotedbl" format="1">
  <advance width="445"/>
  <unicode hex="0022"/>
  <outline>
    <contour>
      <point x="99" y="1360" type="move"/>
      <point x="99" y="900" type="line" name="align-right"/>
    </contour>
    <contour>
      <point x="346" y="1360" type="move"/>
      <point x="346" y="900" type="line" name="align-left"/>
    </contour>
  </outline>
</glyph>
<glyph name="quotesingle" format="1">
  <advance width="198"/>
  <unicode hex="0027"/>
  <outline>
    <contour>
      <point x="99" y="1360" type="move"/>
      <point x="99" y="900" type="line"/>
    </contour>
  </outline>
</glyph>
<glyph name="comma" format="1">
  <advance width="320"/>
  <unicode hex="002C"/>
  <outline>
    <contour>
      <point x="178" y="128" type="move"/>
      <point x="124" y="-192" type="line"/>
    </contour>
  </outline>
</glyph>
<glyph name="hyphen" format="1">
  <advance width="832"/>
  <unicode hex="002D"/>
  <outline>
    <contour>
      <point x="160" y="680" type="move"/>
      <point x="672" y="680" type="line"/>
    </contour>
  </outline>
</glyph>
<glyph name="period" format="1">
  <advance width="320"/>
  <unicode hex="002E"/>
  <outline>
    <contour identifier="circle">
      <point x="180.16" y="0"/>
      <point x="196.52" y="16.36"/>
      <point x="196.52" y="36.56" type="curve" smooth="yes"/>
      <point x="196.52" y="56.76"/>
      <point x="180.16" y="73.12"/>
      <point x="160" y="73.12" type="curve" smooth="yes"/>
      <point x="139.84" y="73.12"/>
      <point x="123.48" y="56.76"/>
      <point x="123.48" y="36.56" type="curve" smooth="yes"/>
      <point x="123.48" y="16.36"/>
      <point x="139.84" y="0"/>
      <point x="160" y="0" type="curve" smooth="yes"/>
    </contour>
  </outline>
</glyph>
<glyph name="zero" format="1">
  <advance width="1080"/>
  <unicode hex="0030"/>
  <outline>
    <contour>
      <point x="540" y="1374.64" type="move"/>
      <point x="825.52" y="1374.64"/>
      <point x="978.72" y="1063.72"/>
      <point x="978.72" y="680" type="curve" smooth="yes"/>
      <point x="978.72" y="296.28"/>
      <point x="825.52" y="-14.64"/>
      <point x="540" y="-14.64" type="curve" smooth="yes"/>
      <point x="254.48" y="-14.64"/>
      <point x="101.28" y="296.28"/>
      <point x="101.28" y="680" type="curve" smooth="yes"/>
      <point x="101.28" y="1063.72"/>
      <point x="254.48" y="1374.64"/>
      <point x="540" y="1374.64" type="curve"/>
    </contour>
  </outline>
</glyph>
<glyph name="one" format="1">
  <advance width="524"/>
  <unicode hex="0031"/>
  <outline>
    <contour>
      <point x="100" y="1245" type="move"/>
      <point x="308" y="1360" type="line"/>
      <point x="308" y="0" type="line"/>
    </contour>
  </outline>
</glyph>
<glyph name="two" format="1">
  <advance width="964"/>
  <unicode hex="0032"/>
  <outline>
    <contour>
      <point x="122.36" y="1183.56" type="move"/>
      <point x="207.32" y="1311.68"/>
      <point x="333.44" y="1374.64"/>
      <point x="498.22" y="1374.64" type="curve" smooth="yes"/>
      <point x="617.3" y="1374.64"/>
      <point x="853.76" y="1314.64"/>
      <point x="853.76" y="1052.88" type="curve" smooth="yes"/>
      <point x="853.76" y="650.4"/>
      <point x="111" y="413.84"/>
      <point x="111" y="0" type="curve"/>
      <point x="893" y="0" type="line"/>
    </contour>
  </outline>
</glyph>
<glyph name="four" format="1">
  <advance width="1000"/>
  <unicode hex="0034"/>
  <outline>
    <contour>
      <point x="702" y="0" type="move"/>
      <point x="702" y="1360" type="line"/>
      <point x="86" y="355" type="line"/>
      <point x="964" y="355" type="line"/>
    </contour>
  </outline>
</glyph>
<glyph name="six" format="1">
  <advance width="1002"/>
  <unicode hex="0036"/>
  <outline>
    <contour>
      <point x="848" y="1250" type="move" smooth="yes"/>
      <point x="768.52" y="1333.52"/>
      <point x="671.94" y="1374.64"/>
      <point x="541.86" y="1374.64" type="curve" smooth="yes"/>
      <point x="346.34" y="1374.64"/>
      <point x="169.74" y="1228.16"/>
      <point x="131.56" y="885.94" type="curve" smooth="yes"/>
      <point x="108.46" y="678.76"/>
      <point x="96" y="375.4"/>
      <point x="197.52" y="182.96" type="curve"/>
      <point x="260.04" y="64.58"/>
      <point x="377.96" y="-14.64"/>
      <point x="530" y="-14.64" type="curve"/>
      <point x="760" y="-14.64"/>
      <point x="912" y="166.7"/>
      <point x="912" y="390.7" type="curve" smooth="yes"/>
      <point x="912" y="614.7"/>
      <point x="760" y="796.04"/>
      <point x="530" y="796.04" type="curve"/>
      <point x="300" y="796.04"/>
      <point x="148" y="614.64"/>
      <point x="148" y="390.64" type="curve" smooth="yes"/>
      <point x="148" y="314.7"/>
      <point x="165.34" y="243.9"/>
      <point x="197.52" y="182.96" type="curve"/>
    </contour>
  </outline>
</glyph>
<glyph name="seven" format="1">
  <advance width="960"/>
  <unicode hex="0037"/>
  <outline>
    <contour>
      <point x="104" y="1360" type="move"/>
      <point x="908" y="1360" type="line"/>
      <point x="231" y="0" type="line"/>
    </contour>
  </outline>
</glyph>
<glyph name="eight" format="1">
  <advance width="956"/>
  <unicode hex="0038"/>
  <outline>
    <contour>
      <point x="478" y="-14.64" type="move"/>
      <point x="708" y="-14.64"/>
      <point x="860" y="154"/>
      <point x="860" y="362.2" type="curve" smooth="yes"/>
      <point x="860" y="570.4"/>
      <point x="708" y="739.04"/>
      <point x="478" y="739.04" type="curve" smooth="yes"/>
      <point x="248" y="739.04"/>
      <point x="96" y="570.4"/>
      <point x="96" y="362.2" type="curve" smooth="yes"/>
      <point x="96" y="154"/>
      <point x="248" y="-14.64"/>
      <point x="478" y="-14.64" type="curve"/>
    </contour>
    <contour>
      <point x="478" y="1374.64" type="move"/>
      <point x="671.88" y="1374.64"/>
      <point x="800" y="1232.36"/>
      <point x="800" y="1056.84" type="curve" smooth="yes"/>
      <point x="800" y="881.32"/>
      <point x="671.88" y="739.04"/>
      <point x="478" y="739.04" type="curve" smooth="yes"/>
      <point x="284.12" y="739.04"/>
      <point x="156" y="881.32"/>
      <point x="156" y="1056.84" type="curve" smooth="yes"/>
      <point x="156" y="1232.36"/>
      <point x="284.12" y="1374.64"/>
      <point x="478" y="1374.64" type="curve"/>
    </contour>
  </outline>
</glyph>
<glyph name="nine" format="1">
  <advance width="1002"/>
  <unicode hex="0039"/>
  <outline>
    <contour>
      <point x="154" y="110" type="move"/>
      <point x="233.48" y="26.48"/>
      <point x="330.06" y="-14.64"/>
      <point x="460.14" y="-14.64" type="curve" smooth="yes"/>
      <point x="655.66" y="-14.64"/>
      <point x="832.26" y="131.84"/>
      <point x="870.44" y="474.06" type="curve" smooth="yes"/>
      <point x="893.54" y="681.24"/>
      <point x="906" y="984.6"/>
      <point x="804.48" y="1177.04" type="curve"/>
      <point x="741.96" y="1295.42"/>
      <point x="624.04" y="1374.64"/>
      <point x="472" y="1374.64" type="curve"/>
      <point x="242" y="1374.64"/>
      <point x="90" y="1193.3"/>
      <point x="90" y="969.3" type="curve" smooth="yes"/>
      <point x="90" y="745.3"/>
      <point x="242" y="563.96"/>
      <point x="472" y="563.96" type="curve"/>
      <point x="702" y="563.96"/>
      <point x="854" y="745.36"/>
      <point x="854" y="969.36" type="curve" smooth="yes"/>
      <point x="854" y="1045.3"/>
      <point x="836.66" y="1116"/>
      <point x="804.48" y="1177.04" type="curve"/>
    </contour>
  </outline>
</glyph>
<glyph name="colon" format="1">
  <advance width="320"/>
  <unicode hex="003A"/>
  <outline>
    <contour identifier="circle1">
      <point x="180.16" y="681.76"/>
      <point x="196.52" y="698.12"/>
      <point x="196.52" y="718.32" type="curve" smooth="yes"/>
      <point x="196.52" y="738.52"/>
      <point x="180.16" y="754.88"/>
      <point x="160" y="754.88" type="curve" smooth="yes"/>
      <point x="139.84" y="754.88"/>
      <point x="123.48" y="738.52"/>
      <point x="123.48" y="718.32" type="curve" smooth="yes"/>
      <point x="123.48" y="698.12"/>
      <point x="139.84" y="681.76"/>
      <point x="160" y="681.76" type="curve" smooth="yes"/>
    </contour>
    <contour identifier="circle2">
      <point x="180.16" y="0"/>
      <point x="196.52" y="16.36"/>
      <point x="196.52" y="36.56" type="curve" smooth="yes"/>
      <point x="196.52" y="56.76"/>
      <point x="180.16" y="73.12"/>
      <point x="160" y="73.12" type="curve" smooth="yes"/>
      <point x="139.84" y="73.12"/>
      <point x="123.48" y="56.76"/>
      <point x="123.48" y="36.56" type="curve" smooth="yes"/>
      <point x="123.48" y="16.36"/>
      <point x="139.84" y="0"/>
      <point x="160" y="0" type="curve" smooth="yes"/>
    </contour>
  </outline>
</glyph>
<glyph name="semicolon" format="1">
  <advance width="320"/>
  <unicode hex="003B"/>
  <outline>
    <contour>
      <point x="180.16" y="641.76"/>
      <point x="196.52" y="658.12"/>
      <point x="196.52" y="678.32" type="curve" smooth="yes"/>
      <point x="196.52" y="698.52"/>
      <point x="180.16" y="714.88"/>
      <point x="160" y="714.88" type="curve" smooth="yes"/>
      <point x="139.84" y="714.88"/>
      <point x="123.48" y="698.52"/>
      <point x="123.48" y="678.32" type="curve" smooth="yes"/>
      <point x="123.48" y="658.12"/>
      <point x="139.84" y="641.76"/>
      <point x="160" y="641.76" type="curve" name="filled" smooth="yes"/>
    </contour>
    <contour>
      <point x="168" y="128" type="move"/>
      <point x="114" y="-192" type="line"/>
    </contour>
  </outline>
</glyph>
<glyph name="B" format="1">
  <advance width="1146"/>
  <unicode hex="0042"/>
  <outline>
    <contour>
      <point x="569.56" y="713.92" type="move"/>
      <point x="842.4" y="713.92"/>
      <point x="951.52" y="881.92"/>
      <point x="951.52" y="1036.96" type="curve" smooth="yes"/>
      <point x="951.52" y="1192"/>
      <point x="842.4" y="1360"/>
      <point x="569.56" y="1360" type="curve" smooth="yes"/>
      <point x="188" y="1360" type="line"/>
      <point x="188" y="0" type="line"/>
      <point x="609.68" y="0" type="line" smooth="yes"/>
      <point x="911.48" y="0"/>
      <point x="1031.72" y="185.56"/>
      <point x="1031.72" y="356.96" type="curve" smooth="yes"/>
      <point x="1031.72" y="528.36"/>
      <point x="911.48" y="713.92"/>
      <point x="609.68" y="713.92" type="curve" smooth="yes"/>
      <point x="190" y="713.92" type="line"/>
    </contour>
  </outline>
</glyph>
<glyph name="C" format="1">
  <advance width="1130"/>
  <unicode hex="0043"/>
  <outline>
    <contour>
      <point x="1016.32" y="124" type="move"/>
      <point x="929.68" y="35.84"/>
      <point x="819.08" y="-14.64"/>
      <point x="657.08" y="-14.64" type="curve" smooth="yes"/>
      <point x="307.4" y="-14.64"/>
      <point x="112.4" y="296.28"/>
      <point x="112.4" y="680" type="curve" smooth="yes"/>
      <point x="112.4" y="1063.72"/>
      <point x="307.4" y="1374.64"/>
      <point x="657.08" y="1374.64" type="curve" smooth="yes"/>
      <point x="819.08" y="1374.64"/>
      <point x="929.68" y="1324.16"/>
      <point x="1016.32" y="1236" type="curve"/>
    </contour>
  </outline>
</glyph>
<glyph name="D" format="1">
  <advance width="1226"/>
  <unicode hex="0044"/>
  <outline>
    <contour>
      <point x="188" y="1374.64" type="move"/>
      <point x="188" y="-14.64" type="line"/>
      <point x="472.24" y="-14.64" type="line" smooth="yes"/>
      <point x="978" y="-14.64"/>
      <point x="1113.4" y="296.28"/>
      <point x="1113.4" y="680" type="curve" smooth="yes"/>
      <point x="1113.4" y="1063.72"/>
      <point x="978" y="1374.64"/>
      <point x="472.24" y="1374.64" type="curve" smooth="yes"/>
      <point x="188" y="1374.64" type="line"/>
    </contour>
  </outline>
</glyph>
<glyph name="E" format="1">
  <advance width="611"/>
  <unicode hex="0045"/>
  <outline>
    <contour>
      <point x="136.03" y="339.975" type="move"/>
      <point x="465.415" y="339.975" type="line"/>
    </contour>
    <contour>
      <point x="526.22" y="680" type="move"/>
      <point x="135.78" y="680" type="line"/>
      <point x="135.78" y="0" type="line"/>
      <point x="526.22" y="0" type="line"/>
    </contour>
  </outline>
</glyph>
<glyph name="F" format="1">
  <advance width="1022"/>
  <unicode hex="0046"/>
  <outline>
    <contour>
      <point x="190" y="680" type="move"/>
      <point x="847" y="680" type="line"/>
    </contour>
    <contour>
      <point x="969" y="1360" type="move"/>
      <point x="188" y="1360" type="line"/>
      <point x="188" y="0" type="line"/>
    </contour>
  </outline>
</glyph>
<glyph name="G" format="1">
  <advance width="1278"/>
  <unicode hex="0047"/>
  <outline>
    <contour>
      <point x="1059.64" y="1214.04" type="move"/>
      <point x="963.2" y="1311"/>
      <point x="830.84" y="1374.64"/>
      <point x="668.96" y="1374.64" type="curve" smooth="yes"/>
      <point x="319.28" y="1374.64"/>
      <point x="112.4" y="1063.72"/>
      <point x="112.4" y="680" type="curve" smooth="yes"/>
      <point x="112.4" y="296.28"/>
      <point x="307.4" y="-14.64"/>
      <point x="657.08" y="-14.64" type="curve" smooth="yes"/>
      <point x="1006.76" y="-14.64"/>
      <point x="1164.84" y="241.68"/>
      <point x="1164.84" y="633.8" type="curve"/>
      <point x="788.8" y="633.8" type="line"/>
    </contour>
  </outline>
</glyph>
<glyph name="H" format="1">
  <advance width="1290"/>
  <unicode hex="0048"/>
  <outline>
    <contour>
      <point x="188" y="1360" type="move"/>
      <point x="188" y="0" type="line"/>
    </contour>
    <contour>
      <point x="1102" y="0" type="move"/>
      <point x="1102" y="1360" type="line"/>
    </contour>
    <contour>
      <point x="190" y="680" type="move"/>
      <point x="1100" y="680" type="line"/>
    </contour>
  </outline>
</glyph>
<glyph name="J" format="1">
  <advance width="1074"/>
  <unicode hex="004A"/>
  <outline>
    <contour>
      <point x="891.4" y="1360" type="move"/>
      <point x="891.4" y="525.68" type="line" smooth="yes"/>
      <point x="891.4" y="139.32"/>
      <point x="653.84" y="-14.64"/>
      <point x="434.44" y="-14.64" type="curve" smooth="yes"/>
      <point x="286.92" y="-14.64"/>
      <point x="130.8" y="54.92"/>
      <point x="44.6" y="218.04" type="curve" smooth="yes"/>
    </contour>
  </outline>
</glyph>
<glyph name="K" format="1">
  <advance width="1142"/>
  <unicode hex="004B"/>
  <outline>
    <contour>
      <point x="188" y="1360" type="move"/>
      <point x="188" y="0" type="line"/>
    </contour>
    <contour>
      <point x="1102" y="0" type="move"/>
      <point x="486.76" y="798.68" type="line"/>
    </contour>
    <contour>
      <point x="1049" y="1360" type="move"/>
      <point x="190" y="504.6" type="line"/>
    </contour>
  </outline>
</glyph>
<glyph name="L" format="1">
  <advance width="1024"/>
  <unicode hex="004C"/>
  <outline>
    <contour>
      <point x="188" y="1360" type="move"/>
      <point x="188" y="0" type="line"/>
      <point x="968" y="0" type="line"/>
    </contour>
  </outline>
</glyph>
<glyph name="M" format="1">
  <advance width="1436"/>
  <unicode hex="004D"/>
  <outline>
    <contour>
      <point x="1248" y="0" type="move"/>
      <point x="1248" y="1360" type="line"/>
      <point x="718" y="304" type="line"/>
      <point x="188" y="1360" type="line"/>
      <point x="188" y="0" type="line"/>
    </contour>
  </outline>
</glyph>
<glyph name="N" format="1">
  <advance width="1290"/>
  <unicode hex="004E"/>
  <outline>
    <contour>
      <point x="1102" y="1360" type="move"/>
      <point x="1102" y="0" type="line"/>
      <point x="188" y="1360" type="line"/>
      <point x="188" y="0" type="line"/>
    </contour>
  </outline>
</glyph>
<glyph name="P" format="1">
  <advance width="1104"/>
  <unicode hex="0050"/>
  <outline>
    <contour>
      <point x="190" y="646.08" type="move"/>
      <point x="609.68" y="646.08" type="line" smooth="yes"/>
      <point x="911.48" y="646.08"/>
      <point x="1031.72" y="831.64"/>
      <point x="1031.72" y="1003.04" type="curve" smooth="yes"/>
      <point x="1031.72" y="1174.44"/>
      <point x="911.48" y="1360"/>
      <point x="609.68" y="1360" type="curve" smooth="yes"/>
      <point x="188" y="1360" type="line"/>
      <point x="188" y="0" type="line"/>
    </contour>
  </outline>
</glyph>
<glyph name="Q" format="1">
  <advance width="1300"/>
  <unicode hex="0051"/>
  <outline>
    <contour>
      <point x="1187.6" y="0" type="move"/>
      <point x="776.6" y="344.6" type="line"/>
    </contour>
    <contour>
      <point x="650" y="1374.64" type="move"/>
      <point x="1000" y="1374.64"/>
      <point x="1187.6" y="1063.72"/>
      <point x="1187.6" y="680" type="curve" smooth="yes"/>
      <point x="1187.6" y="296.28"/>
      <point x="1000" y="-14.64"/>
      <point x="650" y="-14.64" type="curve" smooth="yes"/>
      <point x="300" y="-14.64"/>
      <point x="112.4" y="296.28"/>
      <point x="112.4" y="680" type="curve" smooth="yes"/>
      <point x="112.4" y="1063.72"/>
      <point x="300" y="1374.64"/>
      <point x="650" y="1374.64" type="curve"/>
    </contour>
  </outline>
</glyph>
<glyph name="R" format="1">
  <advance width="1176"/>
  <unicode hex="0052"/>
  <outline>
    <contour>
      <point x="188" y="0" type="move"/>
      <point x="188" y="1360" type="line"/>
      <point x="609.68" y="1360" type="line" smooth="yes"/>
      <point x="911.48" y="1360"/>
      <point x="1031.72" y="1183.16"/>
      <point x="1031.72" y="1019.96" type="curve"/>
      <point x="1031.72" y="856.76"/>
      <point x="911.48" y="680"/>
      <point x="609.68" y="680" type="curve" smooth="yes"/>
      <point x="190" y="680" type="line"/>
    </contour>
    <contour>
      <point x="1048.72" y="0" type="move"/>
      <point x="837.16" y="515.72" type="line" smooth="yes"/>
      <point x="796.36" y="615.16"/>
      <point x="733.32" y="680"/>
      <point x="563.28" y="680" type="curve" smooth="yes"/>
    </contour>
  </outline>
</glyph>
<glyph name="S" format="1">
  <advance width="1084"/>
  <unicode hex="0053"/>
  <outline>
    <contour>
      <point x="920.48" y="1206.28" type="move"/>
      <point x="829.68" y="1316.56"/>
      <point x="694.68" y="1374.64"/>
      <point x="529.76" y="1374.64" type="curve" smooth="yes"/>
      <point x="319.6" y="1374.64"/>
      <point x="160.36" y="1256"/>
      <point x="160.36" y="1068" type="curve" smooth="yes"/>
      <point x="160.36" y="873.6"/>
      <point x="308.16" y="785.72"/>
      <point x="529.76" y="701.6" type="curve" smooth="yes"/>
      <point x="730.48" y="625.4"/>
      <point x="959.36" y="568.36"/>
      <point x="959.36" y="312.36" type="curve" smooth="yes"/>
      <point x="959.36" y="143.6"/>
      <point x="841.92" y="-14.64"/>
      <point x="554.64" y="-14.64" type="curve" smooth="yes"/>
      <point x="386.72" y="-14.64"/>
      <point x="212" y="70"/>
      <point x="128.64" y="203.76" type="curve"/>
    </contour>
  </outline>
</glyph>
<glyph name="U" format="1">
  <advance width="1276"/>
  <unicode hex="0055"/>
  <outline>
    <contour>
      <point x="1095" y="1360" type="move"/>
      <point x="1095" y="525.72" type="line" smooth="yes"/>
      <point x="1095" y="139.32"/>
      <point x="857.2" y="-14.64"/>
      <point x="638" y="-14.64" type="curve" smooth="yes"/>
      <point x="418.8" y="-14.64"/>
      <point x="181" y="139.32"/>
      <point x="181" y="525.72" type="curve" smooth="yes"/>
      <point x="181" y="1360" type="line"/>
    </contour>
  </outline>
</glyph>
<glyph name="V" format="1">
  <advance width="1114"/>
  <unicode hex="0056"/>
  <outline>
    <contour>
      <point x="48" y="1360" type="move"/>
      <point x="557" y="0" type="line"/>
      <point x="1066" y="1360" type="line"/>
    </contour>
  </outline>
</glyph>
<glyph name="X" format="1">
  <advance width="1082"/>
  <unicode hex="0058"/>
  <outline>
    <contour>
      <point x="84" y="1360" type="move"/>
      <point x="998" y="0" type="line"/>
    </contour>
    <contour>
      <point x="998" y="1360" type="move"/>
      <point x="84" y="0" type="line"/>
    </contour>
  </outline>
</glyph>
<glyph name="Z" format="1">
  <advance width="1084"/>
  <unicode hex="005A"/>
  <outline>
    <contour>
      <point x="142" y="1360" type="move"/>
      <point x="966" y="1360" type="line"/>
      <point x="104" y="0" type="line"/>
      <point x="980" y="0" type="line"/>
    </contour>
  </outline>
</glyph>
<glyph name="backslash" format="1">
  <advance width="860"/>
  <unicode hex="005C"/>
  <outline>
    <contour>
      <point x="0" y="1360" type="move"/>
      <point x="860" y="0" type="line"/>
    </contour>
  </outline>
</glyph>
<glyph name="m" format="1">
  <advance width="1200"/>
  <unicode hex="006D"/>
  <outline>
    <contour>
      <point x="0" y="0" type="move"/>
      <point x="0" y="900" type="line"/>
    </contour>
    <contour>
      <point x="0" y="545.12" type="move"/>
    </contour>
    <contour>
      <point x="0" y="545.12" type="move"/>
      <point x="0" y="798.76"/>
      <point x="156.24" y="900"/>
      <point x="300" y="900" type="curve" smooth="yes"/>
      <point x="443.76" y="900"/>
      <point x="600" y="798.76"/>
      <point x="600" y="545.12" type="curve" smooth="yes"/>
      <point x="600" y="0" type="line"/>
    </contour>
    <contour>
      <point x="600" y="545.12" type="move"/>
      <point x="600" y="798.76"/>
      <point x="756.24" y="900"/>
      <point x="900" y="900" type="curve" smooth="yes"/>
      <point x="1043.76" y="900"/>
      <point x="1200" y="798.76"/>
      <point x="1200" y="545.12" type="curve" smooth="yes"/>
      <point x="1200" y="0" type="line"/>
    </contour>
  </outline>
</glyph>
<glyph name="n" format="1">
  <advance width="641"/>
  <unicode hex="006E"/>
  <outline>
    <contour>
      <point x="0" y="0" type="move"/>
      <point x="0" y="900" type="line"/>
    </contour>
    <contour>
      <point x="0" y="545.12" type="move"/>
    </contour>
    <contour>
      <point x="0" y="545.12" type="move"/>
      <point x="0" y="798.76"/>
      <point x="176.82" y="900"/>
      <point x="320.5" y="900" type="curve" smooth="yes"/>
      <point x="464.18" y="900"/>
      <point x="641" y="798.76"/>
      <point x="641" y="545.12" type="curve" smooth="yes"/>
      <point x="641" y="0" type="line"/>
    </contour>
  </outline>
</glyph>
<glyph name="o" format="1">
  <advance width="696.34"/>
  <unicode hex="006F"/>
  <outline>
    <contour>
      <point x="348.16" y="900" type="move"/>
      <point x="574.76" y="900"/>
      <point x="696.34" y="698.56"/>
      <point x="696.34" y="450" type="curve" smooth="yes"/>
      <point x="696.34" y="201.44"/>
      <point x="574.76" y="0"/>
      <point x="348.16" y="0" type="curve" smooth="yes"/>
      <point x="121.56" y="0"/>
      <point x="0" y="201.44"/>
      <point x="0" y="450" type="curve" smooth="yes"/>
      <point x="0" y="698.56"/>
      <point x="121.56" y="900"/>
      <point x="348.16" y="900" type="curve"/>
    </contour>
  </outline>
</glyph>
<glyph name=".notdef" format="1">
  <advance width="1456"/>
  <note>
	.notdef
  </note>
  <outline>
    <contour>
      <point x="272" y="0" type="line"/>
      <point x="1184" y="0" type="line"/>
      <point x="1184" y="1360" type="line"/>
      <point x="272" y="1360" type="line"/>
    </contour>
    <contour identifier="cross1">
      <point x="274" y="1358" type="move"/>
      <point x="1182" y="2" type="line"/>
    </contour>
    <contour identifier="cross2">
      <point x="274" y="2" type="move"/>
      <point x="1182" y="1358" type="line"/>
    </contour>
  </outline>
</glyph>
<glyph name="colon.raised" format="1">
  <advance width="320"/>
  <outline>
    <contour identifier="circle1">
      <point x="180.16" y="322.56"/>
      <point x="196.52" y="338.92"/>
      <point x="196.52" y="359.12" type="curve" smooth="yes"/>
      <point x="196.52" y="379.32"/>
      <point x="180.16" y="395.68"/>
      <point x="160" y="395.68" type="curve" smooth="yes"/>
      <point x="139.84" y="395.68"/>
      <point x="123.48" y="379.32"/>
      <point x="123.48" y="359.12" type="curve" smooth="yes"/>
      <point x="123.48" y="338.92"/>
      <point x="139.84" y="322.56"/>
      <point x="160" y="322.56" type="curve" smooth="yes"/>
    </contour>
    <contour identifier="circle1">
      <point x="180.16" y="964.32"/>
      <point x="196.52" y="980.68"/>
      <point x="196.52" y="1000.88" type="curve" smooth="yes"/>
      <point x="196.52" y="1021.08"/>
      <point x="180.16" y="1037.44"/>
      <point x="160" y="1037.44" type="curve" smooth="yes"/>
      <point x="139.84" y="1037.44"/>
      <point x="123.48" y="1021.08"/>
      <point x="123.48" y="1000.88" type="curve" smooth="yes"/>
      <point x="123.48" y="980.68"/>
      <point x="139.84" y="964.32"/>
      <point x="160" y="964.32" type="curve" smooth="yes"/>
    </contour>
  </outline>
</glyph>
